<?xml version="1.0" encoding="UTF-8" standalone="no"?><svg xmlns="http://www.w3.org/2000/svg" xmlns:xlink="http://www.w3.org/1999/xlink" contentScriptType="application/ecmascript" contentStyleType="text/css" height="861px" preserveAspectRatio="none" style="width:2927px;height:861px;" version="1.1" viewBox="0 0 2927 861" width="2927px" zoomAndPan="magnify"><defs><filter height="300%" id="ffzm245yqfrag" width="300%" x="-1" y="-1"><feGaussianBlur result="blurOut" stdDeviation="2.0"/><feColorMatrix in="blurOut" result="blurOut2" type="matrix" values="0 0 0 0 0 0 0 0 0 0 0 0 0 0 0 0 0 0 .4 0"/><feOffset dx="4.0" dy="4.0" in="blurOut2" result="blurOut3"/><feBlend in="SourceGraphic" in2="blurOut3" mode="normal"/></filter></defs><g><!--cluster mongoose--><polygon fill="#FFFFFF" filter="url(#ffzm245yqfrag)" points="942,24,1031,24,1038,46.2969,1070,46.2969,1070,123,942,123,942,24" style="stroke: #000000; stroke-width: 1.5;"/><line style="stroke: #000000; stroke-width: 1.5;" x1="942" x2="1038" y1="46.2969" y2="46.2969"/><text fill="#000000" font-family="sans-serif" font-size="14" font-weight="bold" lengthAdjust="spacingAndGlyphs" textLength="83" x="946" y="38.9951">mongoose</text><!--cluster game--><polygon fill="#FFFFFF" filter="url(#ffzm245yqfrag)" points="39,750,88,750,95,772.2969,401,772.2969,401,849,39,849,39,750" style="stroke: #000000; stroke-width: 1.5;"/><line style="stroke: #000000; stroke-width: 1.5;" x1="39" x2="95" y1="772.2969" y2="772.2969"/><text fill="#000000" font-family="sans-serif" font-size="14" font-weight="bold" lengthAdjust="spacingAndGlyphs" textLength="43" x="43" y="764.9951">game</text><!--cluster mongoose.Types--><polygon fill="#FFFFFF" filter="url(#ffzm245yqfrag)" points="1417,623,1559,623,1566,645.2969,1569,645.2969,1569,722,1417,722,1417,623" style="stroke: #000000; stroke-width: 1.5;"/><line style="stroke: #000000; stroke-width: 1.5;" x1="1417" x2="1566" y1="645.2969" y2="645.2969"/><text fill="#000000" font-family="sans-serif" font-size="14" font-weight="bold" lengthAdjust="spacingAndGlyphs" textLength="136" x="1421" y="637.9951">mongoose.Types</text><!--cluster identity--><polygon fill="#FFFFFF" filter="url(#ffzm245yqfrag)" points="2630,457.5,2695,457.5,2702,479.7969,2873,479.7969,2873,556.5,2630,556.5,2630,457.5" style="stroke: #000000; stroke-width: 1.5;"/><line style="stroke: #000000; stroke-width: 1.5;" x1="2630" x2="2702" y1="479.7969" y2="479.7969"/><text fill="#000000" font-family="sans-serif" font-size="14" font-weight="bold" lengthAdjust="spacingAndGlyphs" textLength="59" x="2634" y="472.4951">identity</text><!--class mongoose.Document--><rect fill="#FEFECE" filter="url(#ffzm245yqfrag)" height="48" id="mongoose.Document" style="stroke: #A80036; stroke-width: 1.5;" width="96" x="958" y="59"/><ellipse cx="973" cy="75" fill="#ADD1B2" rx="11" ry="11" style="stroke: #A80036; stroke-width: 1.0;"/><path d="M975.3438,70.6719 L975.5156,70.75 C975.7344,70.4375 975.9375,70.3438 976.2344,70.3438 C976.5313,70.3438 976.8125,70.4844 976.9688,70.75 C977.0625,70.9063 977.0781,71.0313 977.0781,71.4688 L977.0781,72.8906 C977.0781,73.3125 977.0469,73.5 976.9375,73.6563 C976.7656,73.875 976.5,74.0156 976.2344,74.0156 C976.0156,74.0156 975.7813,73.9063 975.6406,73.7656 C975.5,73.6406 975.4688,73.5156 975.4063,73.1094 C975.3125,72.7031 975.1406,72.4844 974.6563,72.2031 C974.1875,71.9531 973.5781,71.7969 973,71.7969 C971.2656,71.7969 970.0156,73.1094 970.0156,74.8906 L970.0156,75.9844 C970.0156,77.6875 971.3125,78.7813 973.3594,78.7813 C974.125,78.7813 974.8125,78.6563 975.2344,78.3906 C975.4219,78.2969 975.4219,78.2969 975.875,77.8125 C976.0625,77.625 976.2656,77.5469 976.4844,77.5469 C976.9531,77.5469 977.3438,77.9375 977.3438,78.3906 C977.3438,78.7813 977.0156,79.2344 976.4375,79.6406 C975.6875,80.1875 974.5313,80.4844 973.3125,80.4844 C970.4219,80.4844 968.3125,78.5938 968.3125,76.0156 L968.3125,74.8906 C968.3125,72.1719 970.3125,70.0938 972.9375,70.0938 C973.8125,70.0938 974.4063,70.2344 975.3438,70.6719 Z "/><text fill="#000000" font-family="sans-serif" font-size="12" lengthAdjust="spacingAndGlyphs" textLength="64" x="987" y="79.1543">Document</text><line style="stroke: #A80036; stroke-width: 1.5;" x1="959" x2="1053" y1="91" y2="91"/><line style="stroke: #A80036; stroke-width: 1.5;" x1="959" x2="1053" y1="99" y2="99"/><!--class game.ShipType--><rect fill="#FEFECE" filter="url(#ffzm245yqfrag)" height="48" id="game.ShipType" style="stroke: #A80036; stroke-width: 1.5;" width="88" x="297" y="785"/><ellipse cx="312" cy="801" fill="#ADD1B2" rx="11" ry="11" style="stroke: #A80036; stroke-width: 1.0;"/><path d="M314.3438,796.6719 L314.5156,796.75 C314.7344,796.4375 314.9375,796.3438 315.2344,796.3438 C315.5313,796.3438 315.8125,796.4844 315.9688,796.75 C316.0625,796.9063 316.0781,797.0313 316.0781,797.4688 L316.0781,798.8906 C316.0781,799.3125 316.0469,799.5 315.9375,799.6563 C315.7656,799.875 315.5,800.0156 315.2344,800.0156 C315.0156,800.0156 314.7813,799.9063 314.6406,799.7656 C314.5,799.6406 314.4688,799.5156 314.4063,799.1094 C314.3125,798.7031 314.1406,798.4844 313.6563,798.2031 C313.1875,797.9531 312.5781,797.7969 312,797.7969 C310.2656,797.7969 309.0156,799.1094 309.0156,800.8906 L309.0156,801.9844 C309.0156,803.6875 310.3125,804.7813 312.3594,804.7813 C313.125,804.7813 313.8125,804.6563 314.2344,804.3906 C314.4219,804.2969 314.4219,804.2969 314.875,803.8125 C315.0625,803.625 315.2656,803.5469 315.4844,803.5469 C315.9531,803.5469 316.3438,803.9375 316.3438,804.3906 C316.3438,804.7813 316.0156,805.2344 315.4375,805.6406 C314.6875,806.1875 313.5313,806.4844 312.3125,806.4844 C309.4219,806.4844 307.3125,804.5938 307.3125,802.0156 L307.3125,800.8906 C307.3125,798.1719 309.3125,796.0938 311.9375,796.0938 C312.8125,796.0938 313.4063,796.2344 314.3438,796.6719 Z "/><text fill="#000000" font-family="sans-serif" font-size="12" lengthAdjust="spacingAndGlyphs" textLength="56" x="326" y="805.1543">ShipType</text><line style="stroke: #A80036; stroke-width: 1.5;" x1="298" x2="384" y1="817" y2="817"/><line style="stroke: #A80036; stroke-width: 1.5;" x1="298" x2="384" y1="825" y2="825"/><!--class game.Coord--><rect fill="#FEFECE" filter="url(#ffzm245yqfrag)" height="48" id="game.Coord" style="stroke: #A80036; stroke-width: 1.5;" width="69" x="192.5" y="785"/><ellipse cx="207.5" cy="801" fill="#ADD1B2" rx="11" ry="11" style="stroke: #A80036; stroke-width: 1.0;"/><path d="M209.8438,796.6719 L210.0156,796.75 C210.2344,796.4375 210.4375,796.3438 210.7344,796.3438 C211.0313,796.3438 211.3125,796.4844 211.4688,796.75 C211.5625,796.9063 211.5781,797.0313 211.5781,797.4688 L211.5781,798.8906 C211.5781,799.3125 211.5469,799.5 211.4375,799.6563 C211.2656,799.875 211,800.0156 210.7344,800.0156 C210.5156,800.0156 210.2813,799.9063 210.1406,799.7656 C210,799.6406 209.9688,799.5156 209.9063,799.1094 C209.8125,798.7031 209.6406,798.4844 209.1563,798.2031 C208.6875,797.9531 208.0781,797.7969 207.5,797.7969 C205.7656,797.7969 204.5156,799.1094 204.5156,800.8906 L204.5156,801.9844 C204.5156,803.6875 205.8125,804.7813 207.8594,804.7813 C208.625,804.7813 209.3125,804.6563 209.7344,804.3906 C209.9219,804.2969 209.9219,804.2969 210.375,803.8125 C210.5625,803.625 210.7656,803.5469 210.9844,803.5469 C211.4531,803.5469 211.8438,803.9375 211.8438,804.3906 C211.8438,804.7813 211.5156,805.2344 210.9375,805.6406 C210.1875,806.1875 209.0313,806.4844 207.8125,806.4844 C204.9219,806.4844 202.8125,804.5938 202.8125,802.0156 L202.8125,800.8906 C202.8125,798.1719 204.8125,796.0938 207.4375,796.0938 C208.3125,796.0938 208.9063,796.2344 209.8438,796.6719 Z "/><text fill="#000000" font-family="sans-serif" font-size="12" lengthAdjust="spacingAndGlyphs" textLength="37" x="221.5" y="805.1543">Coord</text><line style="stroke: #A80036; stroke-width: 1.5;" x1="193.5" x2="260.5" y1="817" y2="817"/><line style="stroke: #A80036; stroke-width: 1.5;" x1="193.5" x2="260.5" y1="825" y2="825"/><!--class game.Orientation--><rect fill="#FEFECE" filter="url(#ffzm245yqfrag)" height="48" id="game.Orientation" style="stroke: #A80036; stroke-width: 1.5;" width="102" x="55" y="785"/><ellipse cx="70" cy="801" fill="#ADD1B2" rx="11" ry="11" style="stroke: #A80036; stroke-width: 1.0;"/><path d="M72.3438,796.6719 L72.5156,796.75 C72.7344,796.4375 72.9375,796.3438 73.2344,796.3438 C73.5313,796.3438 73.8125,796.4844 73.9688,796.75 C74.0625,796.9063 74.0781,797.0313 74.0781,797.4688 L74.0781,798.8906 C74.0781,799.3125 74.0469,799.5 73.9375,799.6563 C73.7656,799.875 73.5,800.0156 73.2344,800.0156 C73.0156,800.0156 72.7813,799.9063 72.6406,799.7656 C72.5,799.6406 72.4688,799.5156 72.4063,799.1094 C72.3125,798.7031 72.1406,798.4844 71.6563,798.2031 C71.1875,797.9531 70.5781,797.7969 70,797.7969 C68.2656,797.7969 67.0156,799.1094 67.0156,800.8906 L67.0156,801.9844 C67.0156,803.6875 68.3125,804.7813 70.3594,804.7813 C71.125,804.7813 71.8125,804.6563 72.2344,804.3906 C72.4219,804.2969 72.4219,804.2969 72.875,803.8125 C73.0625,803.625 73.2656,803.5469 73.4844,803.5469 C73.9531,803.5469 74.3438,803.9375 74.3438,804.3906 C74.3438,804.7813 74.0156,805.2344 73.4375,805.6406 C72.6875,806.1875 71.5313,806.4844 70.3125,806.4844 C67.4219,806.4844 65.3125,804.5938 65.3125,802.0156 L65.3125,800.8906 C65.3125,798.1719 67.3125,796.0938 69.9375,796.0938 C70.8125,796.0938 71.4063,796.2344 72.3438,796.6719 Z "/><text fill="#000000" font-family="sans-serif" font-size="12" lengthAdjust="spacingAndGlyphs" textLength="70" x="84" y="805.1543">Orientation</text><line style="stroke: #A80036; stroke-width: 1.5;" x1="56" x2="156" y1="817" y2="817"/><line style="stroke: #A80036; stroke-width: 1.5;" x1="56" x2="156" y1="825" y2="825"/><!--class mongoose.Types.ObjectId--><rect fill="#FEFECE" filter="url(#ffzm245yqfrag)" height="48" id="mongoose.Types.ObjectId" style="stroke: #A80036; stroke-width: 1.5;" width="83" x="1451.5" y="658"/><ellipse cx="1466.5" cy="674" fill="#ADD1B2" rx="11" ry="11" style="stroke: #A80036; stroke-width: 1.0;"/><path d="M1468.8438,669.6719 L1469.0156,669.75 C1469.2344,669.4375 1469.4375,669.3438 1469.7344,669.3438 C1470.0313,669.3438 1470.3125,669.4844 1470.4688,669.75 C1470.5625,669.9063 1470.5781,670.0313 1470.5781,670.4688 L1470.5781,671.8906 C1470.5781,672.3125 1470.5469,672.5 1470.4375,672.6563 C1470.2656,672.875 1470,673.0156 1469.7344,673.0156 C1469.5156,673.0156 1469.2813,672.9063 1469.1406,672.7656 C1469,672.6406 1468.9688,672.5156 1468.9063,672.1094 C1468.8125,671.7031 1468.6406,671.4844 1468.1563,671.2031 C1467.6875,670.9531 1467.0781,670.7969 1466.5,670.7969 C1464.7656,670.7969 1463.5156,672.1094 1463.5156,673.8906 L1463.5156,674.9844 C1463.5156,676.6875 1464.8125,677.7813 1466.8594,677.7813 C1467.625,677.7813 1468.3125,677.6563 1468.7344,677.3906 C1468.9219,677.2969 1468.9219,677.2969 1469.375,676.8125 C1469.5625,676.625 1469.7656,676.5469 1469.9844,676.5469 C1470.4531,676.5469 1470.8438,676.9375 1470.8438,677.3906 C1470.8438,677.7813 1470.5156,678.2344 1469.9375,678.6406 C1469.1875,679.1875 1468.0313,679.4844 1466.8125,679.4844 C1463.9219,679.4844 1461.8125,677.5938 1461.8125,675.0156 L1461.8125,673.8906 C1461.8125,671.1719 1463.8125,669.0938 1466.4375,669.0938 C1467.3125,669.0938 1467.9063,669.2344 1468.8438,669.6719 Z "/><text fill="#000000" font-family="sans-serif" font-size="12" lengthAdjust="spacingAndGlyphs" textLength="51" x="1480.5" y="678.1543">ObjectId</text><line style="stroke: #A80036; stroke-width: 1.5;" x1="1452.5" x2="1533.5" y1="690" y2="690"/><line style="stroke: #A80036; stroke-width: 1.5;" x1="1452.5" x2="1533.5" y1="698" y2="698"/><!--class identity.Country--><rect fill="#FEFECE" filter="url(#ffzm245yqfrag)" height="48" id="identity.Country" style="stroke: #A80036; stroke-width: 1.5;" width="80" x="2777" y="492.5"/><ellipse cx="2792" cy="508.5" fill="#ADD1B2" rx="11" ry="11" style="stroke: #A80036; stroke-width: 1.0;"/><path d="M2794.3438,504.1719 L2794.5156,504.25 C2794.7344,503.9375 2794.9375,503.8438 2795.2344,503.8438 C2795.5313,503.8438 2795.8125,503.9844 2795.9688,504.25 C2796.0625,504.4063 2796.0781,504.5313 2796.0781,504.9688 L2796.0781,506.3906 C2796.0781,506.8125 2796.0469,507 2795.9375,507.1563 C2795.7656,507.375 2795.5,507.5156 2795.2344,507.5156 C2795.0156,507.5156 2794.7813,507.4063 2794.6406,507.2656 C2794.5,507.1406 2794.4688,507.0156 2794.4063,506.6094 C2794.3125,506.2031 2794.1406,505.9844 2793.6563,505.7031 C2793.1875,505.4531 2792.5781,505.2969 2792,505.2969 C2790.2656,505.2969 2789.0156,506.6094 2789.0156,508.3906 L2789.0156,509.4844 C2789.0156,511.1875 2790.3125,512.2813 2792.3594,512.2813 C2793.125,512.2813 2793.8125,512.1563 2794.2344,511.8906 C2794.4219,511.7969 2794.4219,511.7969 2794.875,511.3125 C2795.0625,511.125 2795.2656,511.0469 2795.4844,511.0469 C2795.9531,511.0469 2796.3438,511.4375 2796.3438,511.8906 C2796.3438,512.2813 2796.0156,512.7344 2795.4375,513.1406 C2794.6875,513.6875 2793.5313,513.9844 2792.3125,513.9844 C2789.4219,513.9844 2787.3125,512.0938 2787.3125,509.5156 L2787.3125,508.3906 C2787.3125,505.6719 2789.3125,503.5938 2791.9375,503.5938 C2792.8125,503.5938 2793.4063,503.7344 2794.3438,504.1719 Z "/><text fill="#000000" font-family="sans-serif" font-size="12" lengthAdjust="spacingAndGlyphs" textLength="48" x="2806" y="512.6543">Country</text><line style="stroke: #A80036; stroke-width: 1.5;" x1="2778" x2="2856" y1="524.5" y2="524.5"/><line style="stroke: #A80036; stroke-width: 1.5;" x1="2778" x2="2856" y1="532.5" y2="532.5"/><!--class identity.UserRoles--><rect fill="#FEFECE" filter="url(#ffzm245yqfrag)" height="48" id="identity.UserRoles" style="stroke: #A80036; stroke-width: 1.5;" width="95" x="2646.5" y="492.5"/><ellipse cx="2661.5" cy="508.5" fill="#ADD1B2" rx="11" ry="11" style="stroke: #A80036; stroke-width: 1.0;"/><path d="M2663.8438,504.1719 L2664.0156,504.25 C2664.2344,503.9375 2664.4375,503.8438 2664.7344,503.8438 C2665.0313,503.8438 2665.3125,503.9844 2665.4688,504.25 C2665.5625,504.4063 2665.5781,504.5313 2665.5781,504.9688 L2665.5781,506.3906 C2665.5781,506.8125 2665.5469,507 2665.4375,507.1563 C2665.2656,507.375 2665,507.5156 2664.7344,507.5156 C2664.5156,507.5156 2664.2813,507.4063 2664.1406,507.2656 C2664,507.1406 2663.9688,507.0156 2663.9063,506.6094 C2663.8125,506.2031 2663.6406,505.9844 2663.1563,505.7031 C2662.6875,505.4531 2662.0781,505.2969 2661.5,505.2969 C2659.7656,505.2969 2658.5156,506.6094 2658.5156,508.3906 L2658.5156,509.4844 C2658.5156,511.1875 2659.8125,512.2813 2661.8594,512.2813 C2662.625,512.2813 2663.3125,512.1563 2663.7344,511.8906 C2663.9219,511.7969 2663.9219,511.7969 2664.375,511.3125 C2664.5625,511.125 2664.7656,511.0469 2664.9844,511.0469 C2665.4531,511.0469 2665.8438,511.4375 2665.8438,511.8906 C2665.8438,512.2813 2665.5156,512.7344 2664.9375,513.1406 C2664.1875,513.6875 2663.0313,513.9844 2661.8125,513.9844 C2658.9219,513.9844 2656.8125,512.0938 2656.8125,509.5156 L2656.8125,508.3906 C2656.8125,505.6719 2658.8125,503.5938 2661.4375,503.5938 C2662.3125,503.5938 2662.9063,503.7344 2663.8438,504.1719 Z "/><text fill="#000000" font-family="sans-serif" font-size="12" lengthAdjust="spacingAndGlyphs" textLength="63" x="2675.5" y="512.6543">UserRoles</text><line style="stroke: #A80036; stroke-width: 1.5;" x1="2647.5" x2="2740.5" y1="524.5" y2="524.5"/><line style="stroke: #A80036; stroke-width: 1.5;" x1="2647.5" x2="2740.5" y1="532.5" y2="532.5"/><!--class IMongooseBattleFieldCell--><rect fill="#FEFECE" filter="url(#ffzm245yqfrag)" height="73.6094" id="IMongooseBattleFieldCell" style="stroke: #A80036; stroke-width: 1.5;" width="189" x="1563.5" y="243.5"/><ellipse cx="1578.95" cy="259.5" fill="#B4A7E5" rx="11" ry="11" style="stroke: #A80036; stroke-width: 1.0;"/><path d="M1579.9031,256.2813 L1579.9031,262.7969 L1581.6219,262.7969 C1582.075,262.7969 1582.2156,262.8281 1582.3875,262.9531 C1582.6219,263.125 1582.7313,263.375 1582.7313,263.6563 C1582.7313,264.2188 1582.3719,264.5 1581.6219,264.5 L1576.4813,264.5 C1576.075,264.5 1575.8719,264.4531 1575.7156,264.3281 C1575.4969,264.1719 1575.3563,263.9063 1575.3563,263.6563 C1575.3563,263.3594 1575.5125,263.0781 1575.7625,262.9219 C1575.9188,262.8125 1576.0438,262.7969 1576.4813,262.7969 L1578.2,262.7969 L1578.2,256.2813 L1576.4813,256.2813 C1576.0594,256.2813 1575.8719,256.25 1575.7156,256.1406 C1575.4969,255.9688 1575.3563,255.7188 1575.3563,255.4375 C1575.3563,255.1563 1575.5125,254.8594 1575.7625,254.7031 C1575.9188,254.6094 1576.0438,254.5938 1576.4813,254.5938 L1581.6219,254.5938 C1582.075,254.5938 1582.2156,254.625 1582.3875,254.7344 C1582.6219,254.9063 1582.7313,255.1719 1582.7313,255.4375 C1582.7313,255.7344 1582.5906,256.0156 1582.325,256.1719 C1582.2,256.25 1582.0125,256.2813 1581.6219,256.2813 Z "/><text fill="#000000" font-family="sans-serif" font-size="12" font-style="italic" lengthAdjust="spacingAndGlyphs" textLength="156" x="1593.05" y="263.6543">IMongooseBattleFieldCell</text><line style="stroke: #A80036; stroke-width: 1.5;" x1="1564.5" x2="1751.5" y1="275.5" y2="275.5"/><ellipse cx="1574.5" cy="287.4023" fill="none" rx="3" ry="3" style="stroke: #038048; stroke-width: 1.0;"/><text fill="#000000" font-family="sans-serif" font-size="11" lengthAdjust="spacingAndGlyphs" textLength="152" x="1583.5" y="289.7104">ShipType : game.ShipType</text><ellipse cx="1574.5" cy="300.207" fill="none" rx="3" ry="3" style="stroke: #038048; stroke-width: 1.0;"/><text fill="#000000" font-family="sans-serif" font-size="11" lengthAdjust="spacingAndGlyphs" textLength="163" x="1583.5" y="302.5151">FireReceivedDateTime : Date</text><line style="stroke: #A80036; stroke-width: 1.5;" x1="1564.5" x2="1751.5" y1="309.1094" y2="309.1094"/><!--class IMongooseChatMessage--><rect fill="#FEFECE" filter="url(#ffzm245yqfrag)" height="73.6094" id="IMongooseChatMessage" style="stroke: #A80036; stroke-width: 1.5;" width="183" x="1345.5" y="243.5"/><ellipse cx="1360.5" cy="259.5" fill="#B4A7E5" rx="11" ry="11" style="stroke: #A80036; stroke-width: 1.0;"/><path d="M1361.4531,256.2813 L1361.4531,262.7969 L1363.1719,262.7969 C1363.625,262.7969 1363.7656,262.8281 1363.9375,262.9531 C1364.1719,263.125 1364.2813,263.375 1364.2813,263.6563 C1364.2813,264.2188 1363.9219,264.5 1363.1719,264.5 L1358.0313,264.5 C1357.625,264.5 1357.4219,264.4531 1357.2656,264.3281 C1357.0469,264.1719 1356.9063,263.9063 1356.9063,263.6563 C1356.9063,263.3594 1357.0625,263.0781 1357.3125,262.9219 C1357.4688,262.8125 1357.5938,262.7969 1358.0313,262.7969 L1359.75,262.7969 L1359.75,256.2813 L1358.0313,256.2813 C1357.6094,256.2813 1357.4219,256.25 1357.2656,256.1406 C1357.0469,255.9688 1356.9063,255.7188 1356.9063,255.4375 C1356.9063,255.1563 1357.0625,254.8594 1357.3125,254.7031 C1357.4688,254.6094 1357.5938,254.5938 1358.0313,254.5938 L1363.1719,254.5938 C1363.625,254.5938 1363.7656,254.625 1363.9375,254.7344 C1364.1719,254.9063 1364.2813,255.1719 1364.2813,255.4375 C1364.2813,255.7344 1364.1406,256.0156 1363.875,256.1719 C1363.75,256.25 1363.5625,256.2813 1363.1719,256.2813 Z "/><text fill="#000000" font-family="sans-serif" font-size="12" font-style="italic" lengthAdjust="spacingAndGlyphs" textLength="151" x="1374.5" y="263.6543">IMongooseChatMessage</text><line style="stroke: #A80036; stroke-width: 1.5;" x1="1346.5" x2="1527.5" y1="275.5" y2="275.5"/><ellipse cx="1356.5" cy="287.4023" fill="none" rx="3" ry="3" style="stroke: #038048; stroke-width: 1.0;"/><text fill="#000000" font-family="sans-serif" font-size="11" lengthAdjust="spacingAndGlyphs" textLength="69" x="1365.5" y="289.7104">Text : string</text><ellipse cx="1356.5" cy="300.207" fill="none" rx="3" ry="3" style="stroke: #038048; stroke-width: 1.0;"/><text fill="#000000" font-family="sans-serif" font-size="11" lengthAdjust="spacingAndGlyphs" textLength="102" x="1365.5" y="302.5151">Timestamp : Date</text><line style="stroke: #A80036; stroke-width: 1.5;" x1="1346.5" x2="1527.5" y1="309.1094" y2="309.1094"/><!--class IMongooseEndedMatch--><rect fill="#FEFECE" filter="url(#ffzm245yqfrag)" height="150.4375" id="IMongooseEndedMatch" style="stroke: #A80036; stroke-width: 1.5;" width="294" x="302" y="205.5"/><ellipse cx="371.75" cy="221.5" fill="#B4A7E5" rx="11" ry="11" style="stroke: #A80036; stroke-width: 1.0;"/><path d="M372.7031,218.2813 L372.7031,224.7969 L374.4219,224.7969 C374.875,224.7969 375.0156,224.8281 375.1875,224.9531 C375.4219,225.125 375.5313,225.375 375.5313,225.6563 C375.5313,226.2188 375.1719,226.5 374.4219,226.5 L369.2813,226.5 C368.875,226.5 368.6719,226.4531 368.5156,226.3281 C368.2969,226.1719 368.1563,225.9063 368.1563,225.6563 C368.1563,225.3594 368.3125,225.0781 368.5625,224.9219 C368.7188,224.8125 368.8438,224.7969 369.2813,224.7969 L371,224.7969 L371,218.2813 L369.2813,218.2813 C368.8594,218.2813 368.6719,218.25 368.5156,218.1406 C368.2969,217.9688 368.1563,217.7188 368.1563,217.4375 C368.1563,217.1563 368.3125,216.8594 368.5625,216.7031 C368.7188,216.6094 368.8438,216.5938 369.2813,216.5938 L374.4219,216.5938 C374.875,216.5938 375.0156,216.625 375.1875,216.7344 C375.4219,216.9063 375.5313,217.1719 375.5313,217.4375 C375.5313,217.7344 375.3906,218.0156 375.125,218.1719 C375,218.25 374.8125,218.2813 374.4219,218.2813 Z "/><text fill="#000000" font-family="sans-serif" font-size="12" font-style="italic" lengthAdjust="spacingAndGlyphs" textLength="146" x="392.25" y="225.6543">IMongooseEndedMatch</text><line style="stroke: #A80036; stroke-width: 1.5;" x1="303" x2="595" y1="237.5" y2="237.5"/><ellipse cx="313" cy="249.4023" fill="none" rx="3" ry="3" style="stroke: #038048; stroke-width: 1.0;"/><text fill="#000000" font-family="sans-serif" font-size="11" lengthAdjust="spacingAndGlyphs" textLength="176" x="322" y="251.7104">_id : mongoose.Types.ObjectId</text><ellipse cx="313" cy="262.207" fill="none" rx="3" ry="3" style="stroke: #038048; stroke-width: 1.0;"/><text fill="#000000" font-family="sans-serif" font-size="11" lengthAdjust="spacingAndGlyphs" textLength="200" x="322" y="264.5151">Settings : IMongooseMatchSettings</text><ellipse cx="313" cy="275.0117" fill="none" rx="3" ry="3" style="stroke: #038048; stroke-width: 1.0;"/><text fill="#000000" font-family="sans-serif" font-size="11" lengthAdjust="spacingAndGlyphs" textLength="140" x="322" y="277.3198">CreationDateTime : Date</text><ellipse cx="313" cy="287.8164" fill="none" rx="3" ry="3" style="stroke: #038048; stroke-width: 1.0;"/><text fill="#000000" font-family="sans-serif" font-size="11" lengthAdjust="spacingAndGlyphs" textLength="120" x="322" y="290.1245">StartDateTime : Date</text><ellipse cx="313" cy="300.6211" fill="none" rx="3" ry="3" style="stroke: #038048; stroke-width: 1.0;"/><text fill="#000000" font-family="sans-serif" font-size="11" lengthAdjust="spacingAndGlyphs" textLength="113" x="322" y="302.9292">EndDateTime : Date</text><ellipse cx="313" cy="313.4258" fill="none" rx="3" ry="3" style="stroke: #038048; stroke-width: 1.0;"/><text fill="#000000" font-family="sans-serif" font-size="11" lengthAdjust="spacingAndGlyphs" textLength="208" x="322" y="315.7339">WinnerId : mongoose.Types.ObjectId</text><ellipse cx="313" cy="326.2305" fill="none" rx="3" ry="3" style="stroke: #038048; stroke-width: 1.0;"/><text fill="#000000" font-family="sans-serif" font-size="11" lengthAdjust="spacingAndGlyphs" textLength="251" x="322" y="328.5386">FirstPlayerSide : IMongooseMatchPlayerSide</text><ellipse cx="313" cy="339.0352" fill="none" rx="3" ry="3" style="stroke: #038048; stroke-width: 1.0;"/><text fill="#000000" font-family="sans-serif" font-size="11" lengthAdjust="spacingAndGlyphs" textLength="268" x="322" y="341.3433">SecondPlayerSide : IMongooseMatchPlayerSide</text><line style="stroke: #A80036; stroke-width: 1.5;" x1="303" x2="595" y1="347.9375" y2="347.9375"/><!--class IMongooseMatchSettings--><rect fill="#FEFECE" filter="url(#ffzm245yqfrag)" height="99.2188" id="IMongooseMatchSettings" style="stroke: #A80036; stroke-width: 1.5;" width="391" x="230.5" y="467"/><ellipse cx="343.25" cy="483" fill="#B4A7E5" rx="11" ry="11" style="stroke: #A80036; stroke-width: 1.0;"/><path d="M344.2031,479.7813 L344.2031,486.2969 L345.9219,486.2969 C346.375,486.2969 346.5156,486.3281 346.6875,486.4531 C346.9219,486.625 347.0313,486.875 347.0313,487.1563 C347.0313,487.7188 346.6719,488 345.9219,488 L340.7813,488 C340.375,488 340.1719,487.9531 340.0156,487.8281 C339.7969,487.6719 339.6563,487.4063 339.6563,487.1563 C339.6563,486.8594 339.8125,486.5781 340.0625,486.4219 C340.2188,486.3125 340.3438,486.2969 340.7813,486.2969 L342.5,486.2969 L342.5,479.7813 L340.7813,479.7813 C340.3594,479.7813 340.1719,479.75 340.0156,479.6406 C339.7969,479.4688 339.6563,479.2188 339.6563,478.9375 C339.6563,478.6563 339.8125,478.3594 340.0625,478.2031 C340.2188,478.1094 340.3438,478.0938 340.7813,478.0938 L345.9219,478.0938 C346.375,478.0938 346.5156,478.125 346.6875,478.2344 C346.9219,478.4063 347.0313,478.6719 347.0313,478.9375 C347.0313,479.2344 346.8906,479.5156 346.625,479.6719 C346.5,479.75 346.3125,479.7813 345.9219,479.7813 Z "/><text fill="#000000" font-family="sans-serif" font-size="12" font-style="italic" lengthAdjust="spacingAndGlyphs" textLength="157" x="363.75" y="487.1543">IMongooseMatchSettings</text><line style="stroke: #A80036; stroke-width: 1.5;" x1="231.5" x2="620.5" y1="499" y2="499"/><ellipse cx="241.5" cy="510.9023" fill="none" rx="3" ry="3" style="stroke: #038048; stroke-width: 1.0;"/><text fill="#000000" font-family="sans-serif" font-size="11" lengthAdjust="spacingAndGlyphs" textLength="145" x="250.5" y="513.2104">BattleFieldWidth : number</text><ellipse cx="241.5" cy="523.707" fill="none" rx="3" ry="3" style="stroke: #038048; stroke-width: 1.0;"/><text fill="#000000" font-family="sans-serif" font-size="11" lengthAdjust="spacingAndGlyphs" textLength="151" x="250.5" y="526.0151">BattleFieldHeight : number</text><ellipse cx="241.5" cy="536.5117" fill="none" rx="3" ry="3" style="stroke: #038048; stroke-width: 1.0;"/><text fill="#000000" font-family="sans-serif" font-size="11" lengthAdjust="spacingAndGlyphs" textLength="365" x="250.5" y="538.8198">AvailableShips : ReadonlyArray&lt;IMongooseShipTypeAvailability&gt;</text><ellipse cx="241.5" cy="549.3164" fill="none" rx="3" ry="3" style="stroke: #038048; stroke-width: 1.0;"/><text fill="#000000" font-family="sans-serif" font-size="11" lengthAdjust="spacingAndGlyphs" textLength="156" x="250.5" y="551.6245">MinShipsDistance : number</text><line style="stroke: #A80036; stroke-width: 1.5;" x1="231.5" x2="620.5" y1="558.2188" y2="558.2188"/><!--class IMongooseShipTypeAvailability--><rect fill="#FEFECE" filter="url(#ffzm245yqfrag)" height="73.6094" id="IMongooseShipTypeAvailability" style="stroke: #A80036; stroke-width: 1.5;" width="222" x="241" y="645"/><ellipse cx="256" cy="661" fill="#B4A7E5" rx="11" ry="11" style="stroke: #A80036; stroke-width: 1.0;"/><path d="M256.9531,657.7813 L256.9531,664.2969 L258.6719,664.2969 C259.125,664.2969 259.2656,664.3281 259.4375,664.4531 C259.6719,664.625 259.7813,664.875 259.7813,665.1563 C259.7813,665.7188 259.4219,666 258.6719,666 L253.5313,666 C253.125,666 252.9219,665.9531 252.7656,665.8281 C252.5469,665.6719 252.4063,665.4063 252.4063,665.1563 C252.4063,664.8594 252.5625,664.5781 252.8125,664.4219 C252.9688,664.3125 253.0938,664.2969 253.5313,664.2969 L255.25,664.2969 L255.25,657.7813 L253.5313,657.7813 C253.1094,657.7813 252.9219,657.75 252.7656,657.6406 C252.5469,657.4688 252.4063,657.2188 252.4063,656.9375 C252.4063,656.6563 252.5625,656.3594 252.8125,656.2031 C252.9688,656.1094 253.0938,656.0938 253.5313,656.0938 L258.6719,656.0938 C259.125,656.0938 259.2656,656.125 259.4375,656.2344 C259.6719,656.4063 259.7813,656.6719 259.7813,656.9375 C259.7813,657.2344 259.6406,657.5156 259.375,657.6719 C259.25,657.75 259.0625,657.7813 258.6719,657.7813 Z "/><text fill="#000000" font-family="sans-serif" font-size="12" font-style="italic" lengthAdjust="spacingAndGlyphs" textLength="190" x="270" y="665.1543">IMongooseShipTypeAvailability</text><line style="stroke: #A80036; stroke-width: 1.5;" x1="242" x2="462" y1="677" y2="677"/><ellipse cx="252" cy="688.9023" fill="none" rx="3" ry="3" style="stroke: #038048; stroke-width: 1.0;"/><text fill="#000000" font-family="sans-serif" font-size="11" lengthAdjust="spacingAndGlyphs" textLength="152" x="261" y="691.2104">ShipType : game.ShipType</text><ellipse cx="252" cy="701.707" fill="none" rx="3" ry="3" style="stroke: #038048; stroke-width: 1.0;"/><text fill="#000000" font-family="sans-serif" font-size="11" lengthAdjust="spacingAndGlyphs" textLength="89" x="261" y="704.0151">Count : number</text><line style="stroke: #A80036; stroke-width: 1.5;" x1="242" x2="462" y1="710.6094" y2="710.6094"/><!--class IMongooseEndedMatchPlayerSide--><rect fill="#FEFECE" filter="url(#ffzm245yqfrag)" height="73.6094" id="IMongooseEndedMatchPlayerSide" style="stroke: #A80036; stroke-width: 1.5;" width="282" x="1788" y="243.5"/><ellipse cx="1820.55" cy="259.5" fill="#B4A7E5" rx="11" ry="11" style="stroke: #A80036; stroke-width: 1.0;"/><path d="M1821.5031,256.2813 L1821.5031,262.7969 L1823.2219,262.7969 C1823.675,262.7969 1823.8156,262.8281 1823.9875,262.9531 C1824.2219,263.125 1824.3313,263.375 1824.3313,263.6563 C1824.3313,264.2188 1823.9719,264.5 1823.2219,264.5 L1818.0813,264.5 C1817.675,264.5 1817.4719,264.4531 1817.3156,264.3281 C1817.0969,264.1719 1816.9563,263.9063 1816.9563,263.6563 C1816.9563,263.3594 1817.1125,263.0781 1817.3625,262.9219 C1817.5188,262.8125 1817.6438,262.7969 1818.0813,262.7969 L1819.8,262.7969 L1819.8,256.2813 L1818.0813,256.2813 C1817.6594,256.2813 1817.4719,256.25 1817.3156,256.1406 C1817.0969,255.9688 1816.9563,255.7188 1816.9563,255.4375 C1816.9563,255.1563 1817.1125,254.8594 1817.3625,254.7031 C1817.5188,254.6094 1817.6438,254.5938 1818.0813,254.5938 L1823.2219,254.5938 C1823.675,254.5938 1823.8156,254.625 1823.9875,254.7344 C1824.2219,254.9063 1824.3313,255.1719 1824.3313,255.4375 C1824.3313,255.7344 1824.1906,256.0156 1823.925,256.1719 C1823.8,256.25 1823.6125,256.2813 1823.2219,256.2813 Z "/><text fill="#000000" font-family="sans-serif" font-size="12" font-style="italic" lengthAdjust="spacingAndGlyphs" textLength="211" x="1838.45" y="263.6543">IMongooseEndedMatchPlayerSide</text><line style="stroke: #A80036; stroke-width: 1.5;" x1="1789" x2="2069" y1="275.5" y2="275.5"/><ellipse cx="1799" cy="287.4023" fill="none" rx="3" ry="3" style="stroke: #038048; stroke-width: 1.0;"/><text fill="#000000" font-family="sans-serif" font-size="11" lengthAdjust="spacingAndGlyphs" textLength="205" x="1808" y="289.7104">PlayerId : mongoose.Types.ObjectId</text><ellipse cx="1799" cy="300.207" fill="none" rx="3" ry="3" style="stroke: #038048; stroke-width: 1.0;"/><text fill="#000000" font-family="sans-serif" font-size="11" lengthAdjust="spacingAndGlyphs" textLength="256" x="1808" y="302.5151">BattleFieldCells : IMongooseBattleFieldCell[][]</text><line style="stroke: #A80036; stroke-width: 1.5;" x1="1789" x2="2069" y1="309.1094" y2="309.1094"/><!--class IMongooseMatchPlayerSide--><rect fill="#FEFECE" filter="url(#ffzm245yqfrag)" height="124.8281" id="IMongooseMatchPlayerSide" style="stroke: #A80036; stroke-width: 1.5;" width="638" x="728" y="454"/><ellipse cx="957.25" cy="470" fill="#B4A7E5" rx="11" ry="11" style="stroke: #A80036; stroke-width: 1.0;"/><path d="M958.2031,466.7813 L958.2031,473.2969 L959.9219,473.2969 C960.375,473.2969 960.5156,473.3281 960.6875,473.4531 C960.9219,473.625 961.0313,473.875 961.0313,474.1563 C961.0313,474.7188 960.6719,475 959.9219,475 L954.7813,475 C954.375,475 954.1719,474.9531 954.0156,474.8281 C953.7969,474.6719 953.6563,474.4063 953.6563,474.1563 C953.6563,473.8594 953.8125,473.5781 954.0625,473.4219 C954.2188,473.3125 954.3438,473.2969 954.7813,473.2969 L956.5,473.2969 L956.5,466.7813 L954.7813,466.7813 C954.3594,466.7813 954.1719,466.75 954.0156,466.6406 C953.7969,466.4688 953.6563,466.2188 953.6563,465.9375 C953.6563,465.6563 953.8125,465.3594 954.0625,465.2031 C954.2188,465.1094 954.3438,465.0938 954.7813,465.0938 L959.9219,465.0938 C960.375,465.0938 960.5156,465.125 960.6875,465.2344 C960.9219,465.4063 961.0313,465.6719 961.0313,465.9375 C961.0313,466.2344 960.8906,466.5156 960.625,466.6719 C960.5,466.75 960.3125,466.7813 959.9219,466.7813 Z "/><text fill="#000000" font-family="sans-serif" font-size="12" font-style="italic" lengthAdjust="spacingAndGlyphs" textLength="171" x="977.75" y="474.1543">IMongooseMatchPlayerSide</text><line style="stroke: #A80036; stroke-width: 1.5;" x1="729" x2="1365" y1="486" y2="486"/><ellipse cx="739" cy="497.9023" fill="none" rx="3" ry="3" style="stroke: #038048; stroke-width: 1.0;"/><text fill="#000000" font-family="sans-serif" font-size="11" lengthAdjust="spacingAndGlyphs" textLength="205" x="748" y="500.2104">PlayerId : mongoose.Types.ObjectId</text><ellipse cx="739" cy="510.707" fill="none" rx="3" ry="3" style="stroke: #038048; stroke-width: 1.0;"/><text fill="#000000" font-family="sans-serif" font-size="11" lengthAdjust="spacingAndGlyphs" textLength="256" x="748" y="513.0151">BattleFieldCells : IMongooseBattleFieldCell[][]</text><line style="stroke: #A80036; stroke-width: 1.5;" x1="729" x2="1365" y1="519.6094" y2="519.6094"/><ellipse cx="739" cy="531.5117" fill="#84BE84" rx="3" ry="3" style="stroke: #038048; stroke-width: 1.0;"/><text fill="#000000" font-family="sans-serif" font-size="11" lengthAdjust="spacingAndGlyphs" textLength="364" x="748" y="533.8198">isConfigured(matchSettings: IMongooseMatchSettings): boolean</text><ellipse cx="739" cy="544.3164" fill="#84BE84" rx="3" ry="3" style="stroke: #038048; stroke-width: 1.0;"/><text fill="#000000" font-family="sans-serif" font-size="11" lengthAdjust="spacingAndGlyphs" textLength="612" x="748" y="546.6245">configFleet(matchSettings: IMongooseMatchSettings, shipPlacements: IMongooseShipPlacement[]): boolean</text><ellipse cx="739" cy="557.1211" fill="#84BE84" rx="3" ry="3" style="stroke: #038048; stroke-width: 1.0;"/><text fill="#000000" font-family="sans-serif" font-size="11" lengthAdjust="spacingAndGlyphs" textLength="233" x="748" y="559.4292">receiveFire(coord: game.Coord): boolean</text><ellipse cx="739" cy="569.9258" fill="#84BE84" rx="3" ry="3" style="stroke: #038048; stroke-width: 1.0;"/><text fill="#000000" font-family="sans-serif" font-size="11" lengthAdjust="spacingAndGlyphs" textLength="140" x="748" y="572.2339">areAllShipsHit(): boolean</text><!--class IMongooseShipPlacement--><rect fill="#FEFECE" filter="url(#ffzm245yqfrag)" height="86.4141" id="IMongooseShipPlacement" style="stroke: #A80036; stroke-width: 1.5;" width="200" x="6" y="639"/><ellipse cx="24.6" cy="655" fill="#B4A7E5" rx="11" ry="11" style="stroke: #A80036; stroke-width: 1.0;"/><path d="M25.5531,651.7813 L25.5531,658.2969 L27.2719,658.2969 C27.725,658.2969 27.8656,658.3281 28.0375,658.4531 C28.2719,658.625 28.3813,658.875 28.3813,659.1563 C28.3813,659.7188 28.0219,660 27.2719,660 L22.1313,660 C21.725,660 21.5219,659.9531 21.3656,659.8281 C21.1469,659.6719 21.0063,659.4063 21.0063,659.1563 C21.0063,658.8594 21.1625,658.5781 21.4125,658.4219 C21.5688,658.3125 21.6938,658.2969 22.1313,658.2969 L23.85,658.2969 L23.85,651.7813 L22.1313,651.7813 C21.7094,651.7813 21.5219,651.75 21.3656,651.6406 C21.1469,651.4688 21.0063,651.2188 21.0063,650.9375 C21.0063,650.6563 21.1625,650.3594 21.4125,650.2031 C21.5688,650.1094 21.6938,650.0938 22.1313,650.0938 L27.2719,650.0938 C27.725,650.0938 27.8656,650.125 28.0375,650.2344 C28.2719,650.4063 28.3813,650.6719 28.3813,650.9375 C28.3813,651.2344 28.2406,651.5156 27.975,651.6719 C27.85,651.75 27.6625,651.7813 27.2719,651.7813 Z "/><text fill="#000000" font-family="sans-serif" font-size="12" font-style="italic" lengthAdjust="spacingAndGlyphs" textLength="160" x="39.4" y="659.1543">IMongooseShipPlacement</text><line style="stroke: #A80036; stroke-width: 1.5;" x1="7" x2="205" y1="671" y2="671"/><ellipse cx="17" cy="682.9023" fill="none" rx="3" ry="3" style="stroke: #038048; stroke-width: 1.0;"/><text fill="#000000" font-family="sans-serif" font-size="11" lengthAdjust="spacingAndGlyphs" textLength="127" x="26" y="685.2104">Type : game.ShipType</text><ellipse cx="17" cy="695.707" fill="none" rx="3" ry="3" style="stroke: #038048; stroke-width: 1.0;"/><text fill="#000000" font-family="sans-serif" font-size="11" lengthAdjust="spacingAndGlyphs" textLength="116" x="26" y="698.0151">Coord : game.Coord</text><ellipse cx="17" cy="708.5117" fill="none" rx="3" ry="3" style="stroke: #038048; stroke-width: 1.0;"/><text fill="#000000" font-family="sans-serif" font-size="11" lengthAdjust="spacingAndGlyphs" textLength="174" x="26" y="710.8198">Orientation : game.Orientation</text><line style="stroke: #A80036; stroke-width: 1.5;" x1="7" x2="205" y1="717.4141" y2="717.4141"/><!--class IMongooseUser--><rect fill="#FEFECE" filter="url(#ffzm245yqfrag)" height="227.2656" id="IMongooseUser" style="stroke: #A80036; stroke-width: 1.5;" width="545" x="2371.5" y="167"/><ellipse cx="2591.75" cy="183" fill="#B4A7E5" rx="11" ry="11" style="stroke: #A80036; stroke-width: 1.0;"/><path d="M2592.7031,179.7813 L2592.7031,186.2969 L2594.4219,186.2969 C2594.875,186.2969 2595.0156,186.3281 2595.1875,186.4531 C2595.4219,186.625 2595.5313,186.875 2595.5313,187.1563 C2595.5313,187.7188 2595.1719,188 2594.4219,188 L2589.2813,188 C2588.875,188 2588.6719,187.9531 2588.5156,187.8281 C2588.2969,187.6719 2588.1563,187.4063 2588.1563,187.1563 C2588.1563,186.8594 2588.3125,186.5781 2588.5625,186.4219 C2588.7188,186.3125 2588.8438,186.2969 2589.2813,186.2969 L2591,186.2969 L2591,179.7813 L2589.2813,179.7813 C2588.8594,179.7813 2588.6719,179.75 2588.5156,179.6406 C2588.2969,179.4688 2588.1563,179.2188 2588.1563,178.9375 C2588.1563,178.6563 2588.3125,178.3594 2588.5625,178.2031 C2588.7188,178.1094 2588.8438,178.0938 2589.2813,178.0938 L2594.4219,178.0938 C2594.875,178.0938 2595.0156,178.125 2595.1875,178.2344 C2595.4219,178.4063 2595.5313,178.6719 2595.5313,178.9375 C2595.5313,179.2344 2595.3906,179.5156 2595.125,179.6719 C2595,179.75 2594.8125,179.7813 2594.4219,179.7813 Z "/><text fill="#000000" font-family="sans-serif" font-size="12" font-style="italic" lengthAdjust="spacingAndGlyphs" textLength="96" x="2612.25" y="187.1543">IMongooseUser</text><line style="stroke: #A80036; stroke-width: 1.5;" x1="2372.5" x2="2915.5" y1="199" y2="199"/><ellipse cx="2382.5" cy="210.9023" fill="none" rx="3" ry="3" style="stroke: #038048; stroke-width: 1.0;"/><text fill="#000000" font-family="sans-serif" font-size="11" lengthAdjust="spacingAndGlyphs" textLength="176" x="2391.5" y="213.2104">_id : mongoose.Types.ObjectId</text><ellipse cx="2382.5" cy="223.707" fill="none" rx="3" ry="3" style="stroke: #038048; stroke-width: 1.0;"/><text fill="#000000" font-family="sans-serif" font-size="11" lengthAdjust="spacingAndGlyphs" textLength="104" x="2391.5" y="226.0151">Username : string</text><ellipse cx="2382.5" cy="236.5117" fill="none" rx="3" ry="3" style="stroke: #038048; stroke-width: 1.0;"/><text fill="#000000" font-family="sans-serif" font-size="11" lengthAdjust="spacingAndGlyphs" textLength="132" x="2391.5" y="238.8198">RegistrationDate : Date</text><ellipse cx="2382.5" cy="249.3164" fill="none" rx="3" ry="3" style="stroke: #038048; stroke-width: 1.0;"/><text fill="#000000" font-family="sans-serif" font-size="11" lengthAdjust="spacingAndGlyphs" textLength="91" x="2391.5" y="251.6245">BirthDate : Date</text><ellipse cx="2382.5" cy="262.1211" fill="none" rx="3" ry="3" style="stroke: #038048; stroke-width: 1.0;"/><text fill="#000000" font-family="sans-serif" font-size="11" lengthAdjust="spacingAndGlyphs" textLength="155" x="2391.5" y="264.4292">CountryId : identity.Country</text><ellipse cx="2382.5" cy="274.9258" fill="none" rx="3" ry="3" style="stroke: #038048; stroke-width: 1.0;"/><text fill="#000000" font-family="sans-serif" font-size="11" lengthAdjust="spacingAndGlyphs" textLength="146" x="2391.5" y="277.2339">Roles : identity.UserRoles</text><ellipse cx="2382.5" cy="287.7305" fill="none" rx="3" ry="3" style="stroke: #038048; stroke-width: 1.0;"/><text fill="#000000" font-family="sans-serif" font-size="11" lengthAdjust="spacingAndGlyphs" textLength="67" x="2391.5" y="290.0386">Salt : string</text><ellipse cx="2382.5" cy="300.5352" fill="none" rx="3" ry="3" style="stroke: #038048; stroke-width: 1.0;"/><text fill="#000000" font-family="sans-serif" font-size="11" lengthAdjust="spacingAndGlyphs" textLength="81" x="2391.5" y="302.8433">Digest : string</text><ellipse cx="2382.5" cy="313.3398" fill="none" rx="3" ry="3" style="stroke: #038048; stroke-width: 1.0;"/><text fill="#000000" font-family="sans-serif" font-size="11" lengthAdjust="spacingAndGlyphs" textLength="325" x="2391.5" y="315.6479">SentMessages : Map&lt;String, IMongooseChatMessage[]&gt;</text><ellipse cx="2382.5" cy="326.1445" fill="none" rx="3" ry="3" style="stroke: #038048; stroke-width: 1.0;"/><text fill="#000000" font-family="sans-serif" font-size="11" lengthAdjust="spacingAndGlyphs" textLength="106" x="2391.5" y="328.4526">BannedUntil : Date</text><line style="stroke: #A80036; stroke-width: 1.5;" x1="2372.5" x2="2915.5" y1="335.0469" y2="335.0469"/><ellipse cx="2382.5" cy="346.9492" fill="#84BE84" rx="3" ry="3" style="stroke: #038048; stroke-width: 1.0;"/><text fill="#000000" font-family="sans-serif" font-size="11" lengthAdjust="spacingAndGlyphs" textLength="177" x="2391.5" y="349.2573">setPassword(pwd: string): void</text><ellipse cx="2382.5" cy="359.7539" fill="#84BE84" rx="3" ry="3" style="stroke: #038048; stroke-width: 1.0;"/><text fill="#000000" font-family="sans-serif" font-size="11" lengthAdjust="spacingAndGlyphs" textLength="225" x="2391.5" y="362.062">validatePassword(pwd: string): boolean</text><ellipse cx="2382.5" cy="372.5586" fill="#84BE84" rx="3" ry="3" style="stroke: #038048; stroke-width: 1.0;"/><text fill="#000000" font-family="sans-serif" font-size="11" lengthAdjust="spacingAndGlyphs" textLength="99" x="2391.5" y="374.8667">getAge(): number</text><ellipse cx="2382.5" cy="385.3633" fill="#84BE84" rx="3" ry="3" style="stroke: #038048; stroke-width: 1.0;"/><text fill="#000000" font-family="sans-serif" font-size="11" lengthAdjust="spacingAndGlyphs" textLength="519" x="2391.5" y="387.6714">logMessage(addresseeId: mongoose.Types.ObjectId, text: string): IMongooseChatMessage</text><!--class IMongoosePendingMatch--><rect fill="#FEFECE" filter="url(#ffzm245yqfrag)" height="73.6094" id="IMongoosePendingMatch" style="stroke: #A80036; stroke-width: 1.5;" width="231" x="2105.5" y="243.5"/><ellipse cx="2139.85" cy="259.5" fill="#B4A7E5" rx="11" ry="11" style="stroke: #A80036; stroke-width: 1.0;"/><path d="M2140.8031,256.2813 L2140.8031,262.7969 L2142.5219,262.7969 C2142.975,262.7969 2143.1156,262.8281 2143.2875,262.9531 C2143.5219,263.125 2143.6313,263.375 2143.6313,263.6563 C2143.6313,264.2188 2143.2719,264.5 2142.5219,264.5 L2137.3813,264.5 C2136.975,264.5 2136.7719,264.4531 2136.6156,264.3281 C2136.3969,264.1719 2136.2563,263.9063 2136.2563,263.6563 C2136.2563,263.3594 2136.4125,263.0781 2136.6625,262.9219 C2136.8188,262.8125 2136.9438,262.7969 2137.3813,262.7969 L2139.1,262.7969 L2139.1,256.2813 L2137.3813,256.2813 C2136.9594,256.2813 2136.7719,256.25 2136.6156,256.1406 C2136.3969,255.9688 2136.2563,255.7188 2136.2563,255.4375 C2136.2563,255.1563 2136.4125,254.8594 2136.6625,254.7031 C2136.8188,254.6094 2136.9438,254.5938 2137.3813,254.5938 L2142.5219,254.5938 C2142.975,254.5938 2143.1156,254.625 2143.2875,254.7344 C2143.5219,254.9063 2143.6313,255.1719 2143.6313,255.4375 C2143.6313,255.7344 2143.4906,256.0156 2143.225,256.1719 C2143.1,256.25 2142.9125,256.2813 2142.5219,256.2813 Z "/><text fill="#000000" font-family="sans-serif" font-size="12" font-style="italic" lengthAdjust="spacingAndGlyphs" textLength="156" x="2158.15" y="263.6543">IMongoosePendingMatch</text><line style="stroke: #A80036; stroke-width: 1.5;" x1="2106.5" x2="2335.5" y1="275.5" y2="275.5"/><ellipse cx="2116.5" cy="287.4023" fill="none" rx="3" ry="3" style="stroke: #038048; stroke-width: 1.0;"/><text fill="#000000" font-family="sans-serif" font-size="11" lengthAdjust="spacingAndGlyphs" textLength="176" x="2125.5" y="289.7104">_id : mongoose.Types.ObjectId</text><ellipse cx="2116.5" cy="300.207" fill="none" rx="3" ry="3" style="stroke: #038048; stroke-width: 1.0;"/><text fill="#000000" font-family="sans-serif" font-size="11" lengthAdjust="spacingAndGlyphs" textLength="205" x="2125.5" y="302.5151">PlayerId : mongoose.Types.ObjectId</text><line style="stroke: #A80036; stroke-width: 1.5;" x1="2106.5" x2="2335.5" y1="309.1094" y2="309.1094"/><!--class IMongooseMatch--><rect fill="#FEFECE" filter="url(#ffzm245yqfrag)" height="214.4609" id="IMongooseMatch" style="stroke: #A80036; stroke-width: 1.5;" width="608" x="702" y="173.5"/><ellipse cx="948.75" cy="189.5" fill="#B4A7E5" rx="11" ry="11" style="stroke: #A80036; stroke-width: 1.0;"/><path d="M949.7031,186.2813 L949.7031,192.7969 L951.4219,192.7969 C951.875,192.7969 952.0156,192.8281 952.1875,192.9531 C952.4219,193.125 952.5313,193.375 952.5313,193.6563 C952.5313,194.2188 952.1719,194.5 951.4219,194.5 L946.2813,194.5 C945.875,194.5 945.6719,194.4531 945.5156,194.3281 C945.2969,194.1719 945.1563,193.9063 945.1563,193.6563 C945.1563,193.3594 945.3125,193.0781 945.5625,192.9219 C945.7188,192.8125 945.8438,192.7969 946.2813,192.7969 L948,192.7969 L948,186.2813 L946.2813,186.2813 C945.8594,186.2813 945.6719,186.25 945.5156,186.1406 C945.2969,185.9688 945.1563,185.7188 945.1563,185.4375 C945.1563,185.1563 945.3125,184.8594 945.5625,184.7031 C945.7188,184.6094 945.8438,184.5938 946.2813,184.5938 L951.4219,184.5938 C951.875,184.5938 952.0156,184.625 952.1875,184.7344 C952.4219,184.9063 952.5313,185.1719 952.5313,185.4375 C952.5313,185.7344 952.3906,186.0156 952.125,186.1719 C952,186.25 951.8125,186.2813 951.4219,186.2813 Z "/><text fill="#000000" font-family="sans-serif" font-size="12" font-style="italic" lengthAdjust="spacingAndGlyphs" textLength="106" x="969.25" y="193.6543">IMongooseMatch</text><line style="stroke: #A80036; stroke-width: 1.5;" x1="703" x2="1309" y1="205.5" y2="205.5"/><ellipse cx="713" cy="217.4023" fill="none" rx="3" ry="3" style="stroke: #038048; stroke-width: 1.0;"/><text fill="#000000" font-family="sans-serif" font-size="11" lengthAdjust="spacingAndGlyphs" textLength="176" x="722" y="219.7104">_id : mongoose.Types.ObjectId</text><ellipse cx="713" cy="230.207" fill="none" rx="3" ry="3" style="stroke: #038048; stroke-width: 1.0;"/><text fill="#000000" font-family="sans-serif" font-size="11" lengthAdjust="spacingAndGlyphs" textLength="200" x="722" y="232.5151">Settings : IMongooseMatchSettings</text><ellipse cx="713" cy="243.0117" fill="none" rx="3" ry="3" style="stroke: #038048; stroke-width: 1.0;"/><text fill="#000000" font-family="sans-serif" font-size="11" lengthAdjust="spacingAndGlyphs" textLength="140" x="722" y="245.3198">CreationDateTime : Date</text><ellipse cx="713" cy="255.8164" fill="none" rx="3" ry="3" style="stroke: #038048; stroke-width: 1.0;"/><text fill="#000000" font-family="sans-serif" font-size="11" lengthAdjust="spacingAndGlyphs" textLength="120" x="722" y="258.1245">StartDateTime : Date</text><ellipse cx="713" cy="268.6211" fill="none" rx="3" ry="3" style="stroke: #038048; stroke-width: 1.0;"/><text fill="#000000" font-family="sans-serif" font-size="11" lengthAdjust="spacingAndGlyphs" textLength="113" x="722" y="270.9292">EndDateTime : Date</text><ellipse cx="713" cy="281.4258" fill="none" rx="3" ry="3" style="stroke: #038048; stroke-width: 1.0;"/><text fill="#000000" font-family="sans-serif" font-size="11" lengthAdjust="spacingAndGlyphs" textLength="249" x="722" y="283.7339">InActionPlayerId : mongoose.Types.ObjectId</text><ellipse cx="713" cy="294.2305" fill="none" rx="3" ry="3" style="stroke: #038048; stroke-width: 1.0;"/><text fill="#000000" font-family="sans-serif" font-size="11" lengthAdjust="spacingAndGlyphs" textLength="251" x="722" y="296.5386">FirstPlayerSide : IMongooseMatchPlayerSide</text><ellipse cx="713" cy="307.0352" fill="none" rx="3" ry="3" style="stroke: #038048; stroke-width: 1.0;"/><text fill="#000000" font-family="sans-serif" font-size="11" lengthAdjust="spacingAndGlyphs" textLength="268" x="722" y="309.3433">SecondPlayerSide : IMongooseMatchPlayerSide</text><line style="stroke: #A80036; stroke-width: 1.5;" x1="703" x2="1309" y1="315.9375" y2="315.9375"/><ellipse cx="713" cy="327.8398" fill="#84BE84" rx="3" ry="3" style="stroke: #038048; stroke-width: 1.0;"/><text fill="#000000" font-family="sans-serif" font-size="11" lengthAdjust="spacingAndGlyphs" textLength="168" x="722" y="330.1479">areBothConfigured(): boolean</text><ellipse cx="713" cy="340.6445" fill="#84BE84" rx="3" ry="3" style="stroke: #038048; stroke-width: 1.0;"/><text fill="#000000" font-family="sans-serif" font-size="11" lengthAdjust="spacingAndGlyphs" textLength="582" x="722" y="342.9526">configFleet(playerId: mongoose.Types.ObjectId, shipPlacements: IMongooseShipPlacement[]): boolean</text><ellipse cx="713" cy="353.4492" fill="#84BE84" rx="3" ry="3" style="stroke: #038048; stroke-width: 1.0;"/><text fill="#000000" font-family="sans-serif" font-size="11" lengthAdjust="spacingAndGlyphs" textLength="464" x="722" y="355.7573">fire(firingPlayerId: mongoose.Types.ObjectId, targetCoord: game.Coord): boolean</text><ellipse cx="713" cy="366.2539" fill="#84BE84" rx="3" ry="3" style="stroke: #038048; stroke-width: 1.0;"/><text fill="#000000" font-family="sans-serif" font-size="11" lengthAdjust="spacingAndGlyphs" textLength="519" x="722" y="368.562">getOwnerMatchPlayerSide(playerId: mongoose.Types.ObjectId): IMongooseMatchPlayerSide</text><ellipse cx="713" cy="379.0586" fill="#84BE84" rx="3" ry="3" style="stroke: #038048; stroke-width: 1.0;"/><text fill="#000000" font-family="sans-serif" font-size="11" lengthAdjust="spacingAndGlyphs" textLength="520" x="722" y="381.3667">getEnemyMatchPlayerSide(playerId: mongoose.Types.ObjectId): IMongooseMatchPlayerSide</text><!--class Date--><rect fill="#FEFECE" filter="url(#ffzm245yqfrag)" height="48" id="Date" style="stroke: #A80036; stroke-width: 1.5;" width="62" x="1472" y="492.5"/><ellipse cx="1487" cy="508.5" fill="#ADD1B2" rx="11" ry="11" style="stroke: #A80036; stroke-width: 1.0;"/><path d="M1489.3438,504.1719 L1489.5156,504.25 C1489.7344,503.9375 1489.9375,503.8438 1490.2344,503.8438 C1490.5313,503.8438 1490.8125,503.9844 1490.9688,504.25 C1491.0625,504.4063 1491.0781,504.5313 1491.0781,504.9688 L1491.0781,506.3906 C1491.0781,506.8125 1491.0469,507 1490.9375,507.1563 C1490.7656,507.375 1490.5,507.5156 1490.2344,507.5156 C1490.0156,507.5156 1489.7813,507.4063 1489.6406,507.2656 C1489.5,507.1406 1489.4688,507.0156 1489.4063,506.6094 C1489.3125,506.2031 1489.1406,505.9844 1488.6563,505.7031 C1488.1875,505.4531 1487.5781,505.2969 1487,505.2969 C1485.2656,505.2969 1484.0156,506.6094 1484.0156,508.3906 L1484.0156,509.4844 C1484.0156,511.1875 1485.3125,512.2813 1487.3594,512.2813 C1488.125,512.2813 1488.8125,512.1563 1489.2344,511.8906 C1489.4219,511.7969 1489.4219,511.7969 1489.875,511.3125 C1490.0625,511.125 1490.2656,511.0469 1490.4844,511.0469 C1490.9531,511.0469 1491.3438,511.4375 1491.3438,511.8906 C1491.3438,512.2813 1491.0156,512.7344 1490.4375,513.1406 C1489.6875,513.6875 1488.5313,513.9844 1487.3125,513.9844 C1484.4219,513.9844 1482.3125,512.0938 1482.3125,509.5156 L1482.3125,508.3906 C1482.3125,505.6719 1484.3125,503.5938 1486.9375,503.5938 C1487.8125,503.5938 1488.4063,503.7344 1489.3438,504.1719 Z "/><text fill="#000000" font-family="sans-serif" font-size="12" lengthAdjust="spacingAndGlyphs" textLength="30" x="1501" y="512.6543">Date</text><line style="stroke: #A80036; stroke-width: 1.5;" x1="1473" x2="1533" y1="524.5" y2="524.5"/><line style="stroke: #A80036; stroke-width: 1.5;" x1="1473" x2="1533" y1="532.5" y2="532.5"/><!--class ReadonlyArray--><rect fill="#FEFECE" filter="url(#ffzm245yqfrag)" height="48" id="ReadonlyArray" style="stroke: #A80036; stroke-width: 1.5;" width="121" x="498.5" y="658"/><ellipse cx="513.5" cy="674" fill="#ADD1B2" rx="11" ry="11" style="stroke: #A80036; stroke-width: 1.0;"/><path d="M515.8438,669.6719 L516.0156,669.75 C516.2344,669.4375 516.4375,669.3438 516.7344,669.3438 C517.0313,669.3438 517.3125,669.4844 517.4688,669.75 C517.5625,669.9063 517.5781,670.0313 517.5781,670.4688 L517.5781,671.8906 C517.5781,672.3125 517.5469,672.5 517.4375,672.6563 C517.2656,672.875 517,673.0156 516.7344,673.0156 C516.5156,673.0156 516.2813,672.9063 516.1406,672.7656 C516,672.6406 515.9688,672.5156 515.9063,672.1094 C515.8125,671.7031 515.6406,671.4844 515.1563,671.2031 C514.6875,670.9531 514.0781,670.7969 513.5,670.7969 C511.7656,670.7969 510.5156,672.1094 510.5156,673.8906 L510.5156,674.9844 C510.5156,676.6875 511.8125,677.7813 513.8594,677.7813 C514.625,677.7813 515.3125,677.6563 515.7344,677.3906 C515.9219,677.2969 515.9219,677.2969 516.375,676.8125 C516.5625,676.625 516.7656,676.5469 516.9844,676.5469 C517.4531,676.5469 517.8438,676.9375 517.8438,677.3906 C517.8438,677.7813 517.5156,678.2344 516.9375,678.6406 C516.1875,679.1875 515.0313,679.4844 513.8125,679.4844 C510.9219,679.4844 508.8125,677.5938 508.8125,675.0156 L508.8125,673.8906 C508.8125,671.1719 510.8125,669.0938 513.4375,669.0938 C514.3125,669.0938 514.9063,669.2344 515.8438,669.6719 Z "/><text fill="#000000" font-family="sans-serif" font-size="12" lengthAdjust="spacingAndGlyphs" textLength="89" x="527.5" y="678.1543">ReadonlyArray</text><line style="stroke: #A80036; stroke-width: 1.5;" x1="499.5" x2="618.5" y1="690" y2="690"/><line style="stroke: #A80036; stroke-width: 1.5;" x1="499.5" x2="618.5" y1="698" y2="698"/><!--class Map--><rect fill="#FEFECE" filter="url(#ffzm245yqfrag)" height="48" id="Map" style="stroke: #A80036; stroke-width: 1.5;" width="58" x="2377" y="492.5"/><ellipse cx="2392" cy="508.5" fill="#ADD1B2" rx="11" ry="11" style="stroke: #A80036; stroke-width: 1.0;"/><path d="M2394.3438,504.1719 L2394.5156,504.25 C2394.7344,503.9375 2394.9375,503.8438 2395.2344,503.8438 C2395.5313,503.8438 2395.8125,503.9844 2395.9688,504.25 C2396.0625,504.4063 2396.0781,504.5313 2396.0781,504.9688 L2396.0781,506.3906 C2396.0781,506.8125 2396.0469,507 2395.9375,507.1563 C2395.7656,507.375 2395.5,507.5156 2395.2344,507.5156 C2395.0156,507.5156 2394.7813,507.4063 2394.6406,507.2656 C2394.5,507.1406 2394.4688,507.0156 2394.4063,506.6094 C2394.3125,506.2031 2394.1406,505.9844 2393.6563,505.7031 C2393.1875,505.4531 2392.5781,505.2969 2392,505.2969 C2390.2656,505.2969 2389.0156,506.6094 2389.0156,508.3906 L2389.0156,509.4844 C2389.0156,511.1875 2390.3125,512.2813 2392.3594,512.2813 C2393.125,512.2813 2393.8125,512.1563 2394.2344,511.8906 C2394.4219,511.7969 2394.4219,511.7969 2394.875,511.3125 C2395.0625,511.125 2395.2656,511.0469 2395.4844,511.0469 C2395.9531,511.0469 2396.3438,511.4375 2396.3438,511.8906 C2396.3438,512.2813 2396.0156,512.7344 2395.4375,513.1406 C2394.6875,513.6875 2393.5313,513.9844 2392.3125,513.9844 C2389.4219,513.9844 2387.3125,512.0938 2387.3125,509.5156 L2387.3125,508.3906 C2387.3125,505.6719 2389.3125,503.5938 2391.9375,503.5938 C2392.8125,503.5938 2393.4063,503.7344 2394.3438,504.1719 Z "/><text fill="#000000" font-family="sans-serif" font-size="12" lengthAdjust="spacingAndGlyphs" textLength="26" x="2406" y="512.6543">Map</text><line style="stroke: #A80036; stroke-width: 1.5;" x1="2378" x2="2434" y1="524.5" y2="524.5"/><line style="stroke: #A80036; stroke-width: 1.5;" x1="2378" x2="2434" y1="532.5" y2="532.5"/><!--class String--><rect fill="#FEFECE" filter="url(#ffzm245yqfrag)" height="48" id="String" style="stroke: #A80036; stroke-width: 1.5;" width="69" x="2470.5" y="492.5"/><ellipse cx="2485.5" cy="508.5" fill="#ADD1B2" rx="11" ry="11" style="stroke: #A80036; stroke-width: 1.0;"/><path d="M2487.8438,504.1719 L2488.0156,504.25 C2488.2344,503.9375 2488.4375,503.8438 2488.7344,503.8438 C2489.0313,503.8438 2489.3125,503.9844 2489.4688,504.25 C2489.5625,504.4063 2489.5781,504.5313 2489.5781,504.9688 L2489.5781,506.3906 C2489.5781,506.8125 2489.5469,507 2489.4375,507.1563 C2489.2656,507.375 2489,507.5156 2488.7344,507.5156 C2488.5156,507.5156 2488.2813,507.4063 2488.1406,507.2656 C2488,507.1406 2487.9688,507.0156 2487.9063,506.6094 C2487.8125,506.2031 2487.6406,505.9844 2487.1563,505.7031 C2486.6875,505.4531 2486.0781,505.2969 2485.5,505.2969 C2483.7656,505.2969 2482.5156,506.6094 2482.5156,508.3906 L2482.5156,509.4844 C2482.5156,511.1875 2483.8125,512.2813 2485.8594,512.2813 C2486.625,512.2813 2487.3125,512.1563 2487.7344,511.8906 C2487.9219,511.7969 2487.9219,511.7969 2488.375,511.3125 C2488.5625,511.125 2488.7656,511.0469 2488.9844,511.0469 C2489.4531,511.0469 2489.8438,511.4375 2489.8438,511.8906 C2489.8438,512.2813 2489.5156,512.7344 2488.9375,513.1406 C2488.1875,513.6875 2487.0313,513.9844 2485.8125,513.9844 C2482.9219,513.9844 2480.8125,512.0938 2480.8125,509.5156 L2480.8125,508.3906 C2480.8125,505.6719 2482.8125,503.5938 2485.4375,503.5938 C2486.3125,503.5938 2486.9063,503.7344 2487.8438,504.1719 Z "/><text fill="#000000" font-family="sans-serif" font-size="12" lengthAdjust="spacingAndGlyphs" textLength="37" x="2499.5" y="512.6543">String</text><line style="stroke: #A80036; stroke-width: 1.5;" x1="2471.5" x2="2538.5" y1="524.5" y2="524.5"/><line style="stroke: #A80036; stroke-width: 1.5;" x1="2471.5" x2="2538.5" y1="532.5" y2="532.5"/><!--link IMongooseBattleFieldCell to game.ShipType--><path d="M1662.12,317.742 C1669.72,404.612 1675.24,625.253 1551,730 C1461.12,805.7761 606.809,808.6997 390.553,808.2144 " fill="none" id="IMongooseBattleFieldCell-game.ShipType" style="stroke: #A80036; stroke-width: 1.0;"/><polygon fill="#A80036" points="385.257,808.2015,394.2467,812.2246,390.257,808.2144,394.2673,804.2247,385.257,808.2015" style="stroke: #A80036; stroke-width: 1.0;"/><!--link IMongooseBattleFieldCell to Date--><path d="M1634.12,317.55 C1603.01,364.525 1549.27,445.647 1521.23,487.982 " fill="none" id="IMongooseBattleFieldCell-Date" style="stroke: #A80036; stroke-width: 1.0;"/><polygon fill="#A80036" points="1518.43,492.203,1526.7321,486.9044,1521.189,488.0331,1520.0603,482.49,1518.43,492.203" style="stroke: #A80036; stroke-width: 1.0;"/><!--link IMongooseChatMessage to Date--><path d="M1447.17,317.55 C1460.34,364.24 1483.02,444.665 1495.02,487.208 " fill="none" id="IMongooseChatMessage-Date" style="stroke: #A80036; stroke-width: 1.0;"/><polygon fill="#A80036" points="1496.43,492.203,1497.838,482.4553,1495.0734,487.3906,1490.1381,484.6259,1496.43,492.203" style="stroke: #A80036; stroke-width: 1.0;"/><!--link IMongooseEndedMatch to mongoose.Types.ObjectId--><path d="M545.517,355.549 C577.559,382.936 611.927,415.617 639,449.5 C679.973,500.78 655.805,541.97 710,579 C830.95,661.642 1295.66,677.388 1445.87,680.335 " fill="none" id="IMongooseEndedMatch-mongoose.Types.ObjectId" style="stroke: #A80036; stroke-width: 1.0;"/><polygon fill="#A80036" points="1451.08,680.434,1442.1499,676.2803,1446.0807,680.3483,1442.0128,684.2791,1451.08,680.434" style="stroke: #A80036; stroke-width: 1.0;"/><!--link IMongooseEndedMatch to IMongooseMatchSettings--><path d="M441.723,355.539 C438.337,389.982 434.385,430.194 431.29,461.683 " fill="none" id="IMongooseEndedMatch-IMongooseMatchSettings" style="stroke: #A80036; stroke-width: 1.0;"/><polygon fill="#A80036" points="430.801,466.66,435.6638,458.0953,431.291,461.6841,427.7023,457.3113,430.801,466.66" style="stroke: #A80036; stroke-width: 1.0;"/><!--link IMongooseEndedMatch to Date--><path d="M582.121,355.591 C614.581,370.718 649.821,384.803 684,394 C984.94,474.978 1084.46,360.075 1383,449.5 C1413.11,458.519 1444.12,475.821 1467.07,490.447 " fill="none" id="IMongooseEndedMatch-Date" style="stroke: #A80036; stroke-width: 1.0;"/><polygon fill="#A80036" points="1471.55,493.334,1466.1597,485.0912,1467.3498,490.6214,1461.8195,491.8115,1471.55,493.334" style="stroke: #A80036; stroke-width: 1.0;"/><!--link IMongooseEndedMatch to IMongooseMatchPlayerSide--><path d="M552.907,355.703 C575.34,369.698 599.42,383.285 623,394 C672.908,416.678 728.06,436.174 781.621,452.495 " fill="none" id="IMongooseEndedMatch-IMongooseMatchPlayerSide" style="stroke: #A80036; stroke-width: 1.0;"/><polygon fill="#A80036" points="786.466,453.964,779.0148,447.5235,781.6813,452.5125,776.6924,455.179,786.466,453.964" style="stroke: #A80036; stroke-width: 1.0;"/><!--link IMongooseMatchSettings to ReadonlyArray--><path d="M465.544,566.113 C488.852,594.765 517.478,629.956 536.86,653.783 " fill="none" id="IMongooseMatchSettings-ReadonlyArray" style="stroke: #A80036; stroke-width: 1.0;"/><polygon fill="#A80036" points="540.129,657.801,537.5538,648.2948,536.9743,653.9219,531.3472,653.3424,540.129,657.801" style="stroke: #A80036; stroke-width: 1.0;"/><!--link IMongooseMatchSettings to IMongooseShipTypeAvailability--><path d="M403.998,566.113 C393.338,589.665 380.679,617.634 370.521,640.079 " fill="none" id="IMongooseMatchSettings-IMongooseShipTypeAvailability" style="stroke: #A80036; stroke-width: 1.0;"/><polygon fill="#A80036" points="368.393,644.781,375.7476,638.2304,370.4543,640.2257,368.459,634.9324,368.393,644.781" style="stroke: #A80036; stroke-width: 1.0;"/><!--link IMongooseShipTypeAvailability to game.ShipType--><path d="M348.818,719.155 C347.128,738.366 345.079,761.642 343.504,779.5503 " fill="none" id="IMongooseShipTypeAvailability-game.ShipType" style="stroke: #A80036; stroke-width: 1.0;"/><polygon fill="#A80036" points="343.031,784.9251,347.8049,776.3106,343.4695,779.9444,339.8357,775.609,343.031,784.9251" style="stroke: #A80036; stroke-width: 1.0;"/><!--link IMongooseEndedMatchPlayerSide to mongoose.Types.ObjectId--><path d="M1889.54,317.658 C1803.05,396.91 1598.42,584.402 1522.25,654.203 " fill="none" id="IMongooseEndedMatchPlayerSide-mongoose.Types.ObjectId" style="stroke: #A80036; stroke-width: 1.0;"/><polygon fill="#A80036" points="1518.28,657.836,1527.6212,654.7147,1521.97,654.462,1522.2227,648.8108,1518.28,657.836" style="stroke: #A80036; stroke-width: 1.0;"/><!--link IMongooseMatchPlayerSide to mongoose.Types.ObjectId--><path d="M1214.98,579.079 C1297.91,609.482 1391.68,643.856 1446.37,663.907 " fill="none" id="IMongooseMatchPlayerSide-mongoose.Types.ObjectId" style="stroke: #A80036; stroke-width: 1.0;"/><polygon fill="#A80036" points="1451.22,665.683,1444.1566,658.8195,1446.528,663.9553,1441.3922,666.3267,1451.22,665.683" style="stroke: #A80036; stroke-width: 1.0;"/><!--link IMongooseShipPlacement to game.ShipType--><path d="M206.123,724.506 C211.799,726.457 217.452,728.305 223,730 C247.343,737.438 256.833,729.488 279,742 C295.75,751.454 310.65,766.9461 321.644,780.5453 " fill="none" id="IMongooseShipPlacement-game.ShipType" style="stroke: #A80036; stroke-width: 1.0;"/><polygon fill="#A80036" points="324.928,784.6962,322.4811,775.1561,321.8258,780.7749,316.2071,780.1196,324.928,784.6962" style="stroke: #A80036; stroke-width: 1.0;"/><!--link IMongooseShipPlacement to game.Coord--><path d="M156.703,725.19 C162.683,730.688 168.58,736.37 174,742 C185.629,754.08 197.42,768.5032 206.919,780.7808 " fill="none" id="IMongooseShipPlacement-game.Coord" style="stroke: #A80036; stroke-width: 1.0;"/><polygon fill="#A80036" points="210.049,784.8558,207.7376,775.282,207.0027,780.8909,201.3938,780.1561,210.049,784.8558" style="stroke: #A80036; stroke-width: 1.0;"/><!--link IMongooseShipPlacement to game.Orientation--><path d="M106,725.319 C106,743.137 106,763.405 106,779.4152 " fill="none" id="IMongooseShipPlacement-game.Orientation" style="stroke: #A80036; stroke-width: 1.0;"/><polygon fill="#A80036" points="106,784.6717,110,775.6717,106,779.6717,102,775.6717,106,784.6717" style="stroke: #A80036; stroke-width: 1.0;"/><!--link IMongooseUser to mongoose.Types.ObjectId--><path d="M2624.56,394.213 C2609.41,467.962 2586.08,554.952 2557,579 C2477.57,644.677 1734.74,673.179 1539.71,679.567 " fill="none" id="IMongooseUser-mongoose.Types.ObjectId" style="stroke: #A80036; stroke-width: 1.0;"/><polygon fill="#A80036" points="1534.65,679.732,1543.7818,683.4211,1539.6471,679.5606,1543.5076,675.4258,1534.65,679.732" style="stroke: #A80036; stroke-width: 1.0;"/><!--link IMongooseUser to Date--><path d="M2371.35,389.263 C2365.54,390.914 2359.75,392.496 2354,394 C2044.93,474.876 1657.7,505.452 1539.14,513.298 " fill="none" id="IMongooseUser-Date" style="stroke: #A80036; stroke-width: 1.0;"/><polygon fill="#A80036" points="1534.03,513.633,1543.2734,517.0328,1539.0192,513.3044,1542.7477,509.0501,1534.03,513.633" style="stroke: #A80036; stroke-width: 1.0;"/><!--link IMongooseUser to identity.Country--><path d="M2727.21,394.045 C2753.12,429.096 2779.43,464.681 2796.81,488.192 " fill="none" id="IMongooseUser-identity.Country" style="stroke: #A80036; stroke-width: 1.0;"/><polygon fill="#A80036" points="2799.95,492.439,2797.8246,482.8222,2796.9811,488.4158,2791.3875,487.5724,2799.95,492.439" style="stroke: #A80036; stroke-width: 1.0;"/><!--link IMongooseUser to identity.UserRoles--><path d="M2668.05,394.045 C2675.44,428.66 2682.95,463.795 2687.98,487.308 " fill="none" id="IMongooseUser-identity.UserRoles" style="stroke: #A80036; stroke-width: 1.0;"/><polygon fill="#A80036" points="2689.07,492.439,2691.0978,482.8011,2688.0235,487.5497,2683.2749,484.4755,2689.07,492.439" style="stroke: #A80036; stroke-width: 1.0;"/><!--link IMongooseUser to Map--><path d="M2508.01,394.11 C2488.85,411.952 2469.94,430.729 2453,449.5 C2442.34,461.313 2431.93,475.571 2423.62,487.808 " fill="none" id="IMongooseUser-Map" style="stroke: #A80036; stroke-width: 1.0;"/><polygon fill="#A80036" points="2420.66,492.217,2428.9942,486.9691,2423.4444,488.064,2422.3495,482.5141,2420.66,492.217" style="stroke: #A80036; stroke-width: 1.0;"/><!--link IMongooseUser to String--><path d="M2577.15,394.045 C2556.41,428.95 2535.36,464.385 2521.4,487.899 " fill="none" id="IMongooseUser-String" style="stroke: #A80036; stroke-width: 1.0;"/><polygon fill="#A80036" points="2518.7,492.439,2526.7354,486.7441,2521.2536,488.1402,2519.8574,482.6584,2518.7,492.439" style="stroke: #A80036; stroke-width: 1.0;"/><!--link IMongoosePendingMatch to mongoose.Types.ObjectId--><path d="M2183.14,317.691 C2157.34,341.212 2121.68,371.56 2087,394 C1895.55,517.861 1642.62,622.65 1539.63,663.119 " fill="none" id="IMongoosePendingMatch-mongoose.Types.ObjectId" style="stroke: #A80036; stroke-width: 1.0;"/><polygon fill="#A80036" points="1534.84,664.998,1544.6782,665.4561,1539.4986,663.182,1541.7727,658.0024,1534.84,664.998" style="stroke: #A80036; stroke-width: 1.0;"/><!--link IMongooseMatch to mongoose.Types.ObjectId--><path d="M1301.35,387.557 C1330.94,405.43 1358.9,425.978 1383,449.5 C1414.07,479.819 1461.67,598.396 1482.56,653.087 " fill="none" id="IMongooseMatch-mongoose.Types.ObjectId" style="stroke: #A80036; stroke-width: 1.0;"/><polygon fill="#A80036" points="1484.38,657.86,1484.9132,648.0256,1482.5997,653.1877,1477.4376,650.8741,1484.38,657.86" style="stroke: #A80036; stroke-width: 1.0;"/><!--link IMongooseMatch to IMongooseMatchSettings--><path d="M743.152,387.546 C676.245,414.539 607.394,442.317 551.012,465.064 " fill="none" id="IMongooseMatch-IMongooseMatchSettings" style="stroke: #A80036; stroke-width: 1.0;"/><polygon fill="#A80036" points="546.286,466.971,556.1289,467.3121,550.9226,465.0998,553.135,459.8935,546.286,466.971" style="stroke: #A80036; stroke-width: 1.0;"/><!--link IMongooseMatch to Date--><path d="M1298.74,387.586 C1369.72,414.541 1429.74,438.886 1445,449.5 C1460.09,459.997 1473.83,475.241 1484.15,488.434 " fill="none" id="IMongooseMatch-Date" style="stroke: #A80036; stroke-width: 1.0;"/><polygon fill="#A80036" points="1487.23,492.455,1484.9271,482.8792,1484.1872,488.4874,1478.579,487.7476,1487.23,492.455" style="stroke: #A80036; stroke-width: 1.0;"/><!--link IMongooseMatch to IMongooseMatchPlayerSide--><path d="M1024.58,387.546 C1028.22,408.326 1031.94,429.571 1035.28,448.628 " fill="none" id="IMongooseMatch-IMongooseMatchPlayerSide" style="stroke: #A80036; stroke-width: 1.0;"/><polygon fill="#A80036" points="1036.21,453.943,1038.598,444.388,1035.3478,449.0179,1030.7179,445.7676,1036.21,453.943" style="stroke: #A80036; stroke-width: 1.0;"/><!--link mongoose.Document to IMongooseBattleFieldCell--><path d="M1074.5,89.181 C1200.75,99.6 1464.68,125.684 1546,167 C1581.01,184.789 1611.75,217.631 1632.12,243.257 " fill="none" id="mongoose.Document-IMongooseBattleFieldCell" style="stroke: #A80036; stroke-width: 1.0;"/><polygon fill="none" points="1073.76,96.145,1054.39,87.559,1074.89,82.19,1073.76,96.145" style="stroke: #A80036; stroke-width: 1.0;"/><!--link mongoose.Document to IMongooseChatMessage--><path d="M1074.44,90.861 C1142.35,100.07 1247.49,120.965 1327,167 C1360.33,186.299 1390.32,218.467 1410.53,243.473 " fill="none" id="mongoose.Document-IMongooseChatMessage" style="stroke: #A80036; stroke-width: 1.0;"/><polygon fill="none" points="1073.18,97.757,1054.21,88.314,1074.92,83.866,1073.18,97.757" style="stroke: #A80036; stroke-width: 1.0;"/><!--link mongoose.Document to IMongooseEndedMatch--><path d="M937.854,91.254 C859.496,101.282 728.15,123.325 623,167 C598.417,177.211 573.507,190.919 550.513,205.249 " fill="none" id="mongoose.Document-IMongooseEndedMatch" style="stroke: #A80036; stroke-width: 1.0;"/><polygon fill="none" points="937.07,84.297,957.772,88.818,938.769,98.194,937.07,84.297" style="stroke: #A80036; stroke-width: 1.0;"/><!--link mongoose.Document to IMongooseMatchSettings--><path d="M937.963,86.761 C766.484,94.416 327.15,118.606 284,167 C216.858,242.303 241.803,302.36 284,394 C297.299,422.882 321.225,447.456 345.694,466.789 " fill="none" id="mongoose.Document-IMongooseMatchSettings" style="stroke: #A80036; stroke-width: 1.0;"/><polygon fill="none" points="937.688,79.767,957.973,85.889,938.297,93.753,937.688,79.767" style="stroke: #A80036; stroke-width: 1.0;"/><!--link mongoose.Document to IMongooseShipTypeAvailability--><path d="M937.582,86.458 C757.984,93.582 283.547,116.998 235,167 C107.264,298.563 130.138,415.417 213,579 C226.999,606.636 252.399,628.599 277.693,644.958 " fill="none" id="mongoose.Document-IMongooseShipTypeAvailability" style="stroke: #A80036; stroke-width: 1.0;"/><polygon fill="none" points="937.473,79.457,957.729,85.678,938.015,93.446,937.473,79.457" style="stroke: #A80036; stroke-width: 1.0;"/><!--link mongoose.Document to IMongooseEndedMatchPlayerSide--><path d="M1074.66,87.046 C1237.6,94.978 1643.42,119.068 1770,167 C1815.38,184.184 1859.84,217.452 1890.16,243.373 " fill="none" id="mongoose.Document-IMongooseEndedMatchPlayerSide" style="stroke: #A80036; stroke-width: 1.0;"/><polygon fill="none" points="1073.87,94.016,1054.23,86.074,1074.54,80.032,1073.87,94.016" style="stroke: #A80036; stroke-width: 1.0;"/><!--link mongoose.Document to IMongooseMatchPlayerSide--><path d="M938.068,91.8 C853.055,103.12 714.83,127.215 684,167 C622.202,246.747 625.06,312.118 684,394 C701.665,418.541 724.518,438.197 750.156,453.929 " fill="none" id="mongoose.Document-IMongooseMatchPlayerSide" style="stroke: #A80036; stroke-width: 1.0;"/><polygon fill="none" points="937.194,84.854,957.921,89.258,938.972,98.741,937.194,84.854" style="stroke: #A80036; stroke-width: 1.0;"/><!--link mongoose.Document to IMongooseShipPlacement--><path d="M937.651,85.536 C742.516,90.6 193.287,109.849 138,167 C12.7377,296.486 64.8403,540.577 92.7019,638.638 " fill="none" id="mongoose.Document-IMongooseShipPlacement" style="stroke: #A80036; stroke-width: 1.0;"/><polygon fill="none" points="937.626,78.534,957.795,85.031,937.976,92.53,937.626,78.534" style="stroke: #A80036; stroke-width: 1.0;"/><!--link mongoose.Document to IMongooseUser--><path d="M1074.38,85.43 C1312.74,90.849 2105.97,112.634 2354,167 C2359.67,168.243 2365.38,169.58 2371.1,171.001 " fill="none" id="mongoose.Document-IMongooseUser" style="stroke: #A80036; stroke-width: 1.0;"/><polygon fill="none" points="1074.18,92.428,1054.34,84.984,1074.49,78.431,1074.18,92.428" style="stroke: #A80036; stroke-width: 1.0;"/><!--link mongoose.Document to IMongoosePendingMatch--><path d="M1074.5,83.831 C1282.25,84.163 1902.29,91.61 2087,167 C2127.5,183.529 2164.83,217.059 2189.75,243.233 " fill="none" id="mongoose.Document-IMongoosePendingMatch" style="stroke: #A80036; stroke-width: 1.0;"/><polygon fill="none" points="1074.31,90.831,1054.31,83.82,1074.31,76.831,1074.31,90.831" style="stroke: #A80036; stroke-width: 1.0;"/><!--link mongoose.Document to IMongooseMatch--><path d="M1006,127.435 C1006,141.195 1006,157.06 1006,173.238 " fill="none" id="mongoose.Document-IMongooseMatch" style="stroke: #A80036; stroke-width: 1.0;"/><polygon fill="none" points="999,127.194,1006,107.194,1013,127.194,999,127.194" style="stroke: #A80036; stroke-width: 1.0;"/><!--
@startuml
interface IMongooseBattleFieldCell{
  +ShipType : game.ShipType
  +FireReceivedDateTime : Date
}

class mongoose.Document{

}

interface IMongooseChatMessage{
  +Text : string
  +Timestamp : Date
}

interface IMongooseEndedMatch{
  +_id : mongoose.Types.ObjectId
  +Settings : IMongooseMatchSettings
  +CreationDateTime : Date
  +StartDateTime : Date
  +EndDateTime : Date
  +WinnerId : mongoose.Types.ObjectId
  +FirstPlayerSide : IMongooseMatchPlayerSide
  +SecondPlayerSide : IMongooseMatchPlayerSide
}

interface IMongooseMatchSettings{
  +BattleFieldWidth : number
  +BattleFieldHeight : number
  +AvailableShips : ReadonlyArray<IMongooseShipTypeAvailability>
  +MinShipsDistance : number
}

interface IMongooseShipTypeAvailability{
  +ShipType : game.ShipType
  +Count : number
}

interface IMongooseEndedMatchPlayerSide{
  +PlayerId : mongoose.Types.ObjectId
  +BattleFieldCells : IMongooseBattleFieldCell[][]
}

interface IMongooseMatchPlayerSide{
  +PlayerId : mongoose.Types.ObjectId
  +BattleFieldCells : IMongooseBattleFieldCell[][]
  +isConfigured(matchSettings: IMongooseMatchSettings): boolean
  +configFleet(matchSettings: IMongooseMatchSettings, shipPlacements: IMongooseShipPlacement[]): boolean
  +receiveFire(coord: game.Coord): boolean
  +areAllShipsHit(): boolean
}

interface IMongooseShipPlacement{
  +Type : game.ShipType
  +Coord : game.Coord
  +Orientation : game.Orientation
}

interface IMongooseUser{
  +_id : mongoose.Types.ObjectId
  +Username : string
  +RegistrationDate : Date
  +BirthDate : Date
  +CountryId : identity.Country
  +Roles : identity.UserRoles
  +Salt : string
  +Digest : string
  +SentMessages : Map<String, IMongooseChatMessage[]>
  +BannedUntil : Date
  +setPassword(pwd: string): void
  +validatePassword(pwd: string): boolean
  +getAge(): number
  +logMessage(addresseeId: mongoose.Types.ObjectId, text: string): IMongooseChatMessage
}

interface IMongoosePendingMatch{
  +_id : mongoose.Types.ObjectId
  +PlayerId : mongoose.Types.ObjectId
}

interface IMongooseMatch{
  +_id : mongoose.Types.ObjectId
  +Settings : IMongooseMatchSettings
  +CreationDateTime : Date
  +StartDateTime : Date
  +EndDateTime : Date
  +InActionPlayerId : mongoose.Types.ObjectId
  +FirstPlayerSide : IMongooseMatchPlayerSide
  +SecondPlayerSide : IMongooseMatchPlayerSide
  +areBothConfigured(): boolean
  +configFleet(playerId: mongoose.Types.ObjectId, shipPlacements: IMongooseShipPlacement[]): boolean
  +fire(firingPlayerId: mongoose.Types.ObjectId, targetCoord: game.Coord): boolean
  +getOwnerMatchPlayerSide(playerId: mongoose.Types.ObjectId): IMongooseMatchPlayerSide
  +getEnemyMatchPlayerSide(playerId: mongoose.Types.ObjectId): IMongooseMatchPlayerSide
}

IMongooseBattleFieldCell - -> game.ShipType
IMongooseBattleFieldCell - -> Date
IMongooseChatMessage - -> Date
IMongooseEndedMatch - -> mongoose.Types.ObjectId
IMongooseEndedMatch - -> IMongooseMatchSettings
IMongooseEndedMatch - -> Date
IMongooseEndedMatch - -> IMongooseMatchPlayerSide
IMongooseMatchSettings - -> ReadonlyArray
IMongooseMatchSettings - -> IMongooseShipTypeAvailability
IMongooseShipTypeAvailability - -> game.ShipType
IMongooseEndedMatchPlayerSide - -> mongoose.Types.ObjectId
IMongooseMatchPlayerSide - -> mongoose.Types.ObjectId
IMongooseShipPlacement - -> game.ShipType
IMongooseShipPlacement - -> game.Coord
IMongooseShipPlacement - -> game.Orientation
IMongooseUser - -> mongoose.Types.ObjectId
IMongooseUser - -> Date
IMongooseUser - -> identity.Country
IMongooseUser - -> identity.UserRoles
IMongooseUser - -> Map
IMongooseUser - -> String
IMongoosePendingMatch - -> mongoose.Types.ObjectId
IMongooseMatch - -> mongoose.Types.ObjectId
IMongooseMatch - -> IMongooseMatchSettings
IMongooseMatch - -> Date
IMongooseMatch - -> IMongooseMatchPlayerSide
mongoose.Document <|- - IMongooseBattleFieldCell
mongoose.Document <|- - IMongooseChatMessage
mongoose.Document <|- - IMongooseEndedMatch
mongoose.Document <|- - IMongooseMatchSettings
mongoose.Document <|- - IMongooseShipTypeAvailability
mongoose.Document <|- - IMongooseEndedMatchPlayerSide
mongoose.Document <|- - IMongooseMatchPlayerSide
mongoose.Document <|- - IMongooseShipPlacement
mongoose.Document <|- - IMongooseUser
mongoose.Document <|- - IMongoosePendingMatch
mongoose.Document <|- - IMongooseMatch
@enduml

PlantUML version 1.2018.14beta12(Unknown compile time)
(GPL source distribution)
Java Runtime: Java(TM) SE Runtime Environment
JVM: Java HotSpot(TM) 64-Bit Server VM
Java Version: 1.7.0_25-b15
Operating System: Linux
Default Encoding: UTF-8
Language: en
Country: US
--></g></svg>